<?xml version="1.0" encoding="UTF-8"?>
<svg width="24px" height="24px" viewBox="0 0 24 24" version="1.1" xmlns="http://www.w3.org/2000/svg" xmlns:xlink="http://www.w3.org/1999/xlink">
    <!-- Generator: Sketch 52 (66869) - http://www.bohemiancoding.com/sketch -->
    <title>icon/green/heart-outline@1x</title>
    <desc>Created with Sketch.</desc>
    <g id="icon/green/heart-outline" stroke="none" stroke-width="1" fill="none" fill-rule="evenodd">
        <path d="M15.2683824,6.5 C14.7681845,6.5 14.2218039,6.67807744 13.6197994,7.05028436 C13.1909462,7.3056716 12.7666889,7.63548736 12.3474384,8.04059892 L12,8.37632016 L11.6525616,8.04059892 C11.2333111,7.63548736 10.8090538,7.3056716 10.3730463,7.04594238 C9.77819607,6.67807744 9.23181545,6.5 8.73161765,6.5 C7.68833683,6.5 6.90095791,6.77861184 6.34055869,7.32714401 C5.78225099,7.87362896 5.5,8.63614549 5.5,9.64655172 C5.5,10.3303937 5.75740176,11.0531474 6.28674893,11.8197886 C6.57418722,12.2370224 6.84891166,12.5604277 7.12435929,12.8053781 L11.9145519,17.4659906 C11.9445459,17.4918263 11.9662355,17.5 12,17.5 C12.0337645,17.5 12.0554541,17.4918263 12.0631407,17.4864126 L16.8785496,12.8025715 C17.2121636,12.4832788 17.5057676,12.1324081 17.7625293,11.7454113 C18.25848,11.0133953 18.5,10.3156049 18.5,9.64655172 C18.5,8.63614549 18.217749,7.87362896 17.6594413,7.32714401 C17.0990421,6.77861184 16.3116632,6.5 15.2683824,6.5 Z" id="heart" stroke="#FFFFFF" fill="#4CB649"></path>
    </g>
</svg>