<svg xmlns="http://www.w3.org/2000/svg" viewBox="0 0 14 12"><defs><style>.cls-1{fill:#4cb649;stroke:#22252e;}</style></defs><title>heart-outline-dark@1x</title><g id="Layer_2" data-name="Layer 2"><g id="Layer_1-2" data-name="Layer 1"><g id="icon_green_heart-outline" data-name="icon/green/heart-outline"><path id="heart" class="cls-1" d="M10.27.5a3.17,3.17,0,0,0-1.65.55A7,7,0,0,0,7.35,2L7,2.38,6.65,2A7,7,0,0,0,5.37,1,3.16,3.16,0,0,0,3.73.5a3.26,3.26,0,0,0-2.39.83A3.08,3.08,0,0,0,.5,3.65a3.85,3.85,0,0,0,.79,2.17,5.43,5.43,0,0,0,.84,1l4.79,4.66a.12.12,0,0,0,.09,0h.06L11.88,6.8a6.2,6.2,0,0,0,.88-1.06,3.75,3.75,0,0,0,.74-2.1,3.08,3.08,0,0,0-.84-2.32A3.26,3.26,0,0,0,10.27.5Z"/></g></g></g></svg>