<svg xmlns="http://www.w3.org/2000/svg" viewBox="0 0 149.12 133.19"><defs><style>.cls-1{fill:#f24458;}</style></defs><title>Triangle</title><g id="Layer_2" data-name="Layer 2"><g id="Layer_1-2" data-name="Layer 1"><path class="cls-1" d="M146.83,113.14Q116.49,60.08,85.84,7.2c-5.55-9.58-17-9.61-22.55,0Q32.64,60,2.3,113.09c-5.9,10.31,0,20.06,12,20.08q30,0,60,0,30.23,0,60.46,0C146.73,133.16,152.72,123.44,146.83,113.14Zm-13.65,8.48c-19.48-.16-39-.07-58.45-.07s-39,0-58.45,0c-5.2,0-5.4-.34-2.82-4.84Q42.62,65.85,71.75,15c2.12-3.72,3.22-3.88,5.42,0q29.23,51.09,58.74,102C138.07,120.71,137.5,121.65,133.18,121.61Z"/><path class="cls-1" d="M81.5,65.26c-.43,8.15-1,16.3-1.23,24.45-.12,4-2,5.95-5.75,5.93-3.48,0-5.37-1.79-5.55-5.58-.77-16-1.77-31.93-2.59-47.89-.3-5.83,2.7-8.86,8.28-8.76,5.74.11,8.43,3.1,8.09,8.9C82.3,50,81.91,57.61,81.5,65.26Z"/><path class="cls-1" d="M81.42,107.14c.08,4-2.8,7.15-6.72,7s-6.47-2.32-6.75-6.46a6.75,6.75,0,1,1,13.47-.54Z"/></g></g></svg>